PathFileType	4	(X/Y/Z)	Patient4_TMGait_0pt2_02_left_09.trc.trc
DataRate	CameraRate	NumFrames	NumMarkers	Units	OrigDataRate	OrigDataStartFrame	OrigNumFrames
41.791044776119	41.791044776119	4	33	mm	41.791044776119	89	       141
Frame#	Time	R.Midfoot.Superior			Sacral			L.Shoulder			Chest			R.Shoulder			Neck			R.ASIS			L.ASIS			R.Thigh.Superior			R.Thigh.Lateral			R.Thigh.Inferior			R.Patella			L.Thigh.Superior			L.Thigh.Lateral			L.Thigh.Inferior			L.Patella			L.Shank.Superior			L.Shank.Lateral			L.Shank.Inferior			R.Shank.Superior			R.Shank.Lateral			R.Shank.Inferior			R.Heel			R.Midfoot.Lateral			R.Toe			L.Heel			L.Midfoot.Lateral			L.Midfoot.Superior			L.Toe			L.Elbow			L.Wrist			R.Elbow			R.Wrist			
		X1	Y1	Z1	X2	Y2	Z2	X3	Y3	Z3	X4	Y4	Z4	X5	Y5	Z5	X6	Y6	Z6	X7	Y7	Z7	X8	Y8	Z8	X9	Y9	Z9	X10	Y10	Z10	X11	Y11	Z11	X12	Y12	Z12	X13	Y13	Z13	X14	Y14	Z14	X15	Y15	Z15	X16	Y16	Z16	X17	Y17	Z17	X18	Y18	Z18	X19	Y19	Z19	X20	Y20	Z20	X21	Y21	Z21	X22	Y22	Z22	X23	Y23	Z23	X24	Y24	Z24	X25	Y25	Z25	X26	Y26	Z26	X27	Y27	Z27	X28	Y28	Z28	X29	Y29	Z29	X30	Y30	Z30	X31	Y31	Z31	X32	Y32	Z32	X33	Y33	Z33	

89	22.395714285714	1068.287024069901	97.129504182914	603.053298173326	799.147633063042	1011.467865905434	529.800126889916	1028.365521057698	1415.557969607351	345.064714561796	1119.875817050148	1343.648487305390	510.413208956674	1042.890158079477	1433.695114172389	678.715824231009	1004.775439986938	1482.471516606108	505.237620666385	1023.113353322420	922.268437956485	644.716548283568	1010.824533652637	954.916803396858	371.944455468299	1081.703707754114	745.675660754185	597.777913840908	1024.683485623125	623.677482926902	662.521986163733	1104.422516921418	583.076729424084	576.494916698352	1120.039362454205	489.993655206302	583.329612196061	1032.349464689315	730.968171427996	395.490132048809	931.947988806926	626.549818326573	327.784399928521	1003.678606700437	537.783476771146	391.270954392394	995.621543036047	465.217218932528	394.184566749630	949.851788020056	401.910495702884	381.283017246977	837.589021420821	312.515414264988	321.665890822558	863.507950721582	187.699371378612	384.087588272501	1084.026912738446	399.723470408475	591.986245956318	1011.457588326142	300.735036457695	661.172641844561	1040.274614252181	203.544323351468	595.302663049973	894.417784262601	43.764716803735	580.510310634583	983.236990191094	37.302261223626	648.359611714168	1189.807030953624	45.692675446097	622.108902444821	710.209517450551	45.298650894060	412.999548095525	785.392515399223	38.688134761414	334.412584377331	872.059798833813	96.049761283237	363.096543220858	997.412415140747	38.628493131826	334.461100484180	1122.460832701625	1111.720858468132	180.992306954579	1380.569555814111	1078.813105885560	190.576447230743	893.734556452330	1129.767314518077	811.131122528800	878.338584728872	867.164065415947	815.965464782104	
90	22.419642857143	1063.808275363924	97.052185279217	603.276784133400	799.505322794438	1011.790567441765	537.957004328015	1027.179339806266	1415.893775802449	351.095195287740	1120.129010157658	1343.724673186613	515.517060479609	1044.602727354221	1433.708745938083	684.506270039287	1005.186299522370	1482.724092360547	511.449147666231	1024.512444540095	922.411113234346	650.779523167391	1009.555074731073	954.993974708697	378.415527184972	1081.728455222204	744.997896497442	603.188651288217	1023.698104208950	623.045823741194	667.336980587839	1102.764405041829	582.401809589656	580.790073845918	1117.528350245111	489.253961710351	586.907946734308	1031.589054372445	731.608881148233	400.191705061815	931.083698392063	627.315210438985	332.047358352165	1004.051269110379	538.174721414048	394.040815475374	996.200519452122	465.050757339420	396.280457217505	949.386914794526	402.442149803574	383.552970308523	835.595759954844	315.018405764721	323.979590325104	860.759043489952	189.274832511410	385.074290693555	1081.138930266535	399.082302559371	594.841884028314	1008.212625338840	299.781587285322	663.278944352990	1036.526802204568	203.129448865870	596.450792282222	889.885944571754	43.631483029134	580.582134280466	978.703284507820	37.200346092855	648.438681079890	1185.341076058099	45.487942809053	622.252717897560	705.949342522496	48.587613683726	413.214663204216	780.991152359699	40.629279265402	334.705528403611	868.466211236918	96.803321723743	363.227315725696	992.798916605855	37.971221249492	334.679539769865	1113.312158811825	1107.658152892243	187.858288175612	1369.997300311039	1063.266666795016	196.497362713945	902.186914917815	1126.782823593918	819.674676158611	893.238160284155	863.992567916335	825.910410123543	
91	22.443571428571	1059.323472348524	96.995784693412	603.525138618462	799.623634031624	1012.016042032747	545.900233476739	1025.598474128197	1416.201010861144	356.913989234469	1120.058790730361	1343.795481454623	520.355695854060	1046.020670194807	1433.655670851308	690.066970994226	1005.263491233417	1482.948078678076	517.437747623717	1025.678928236310	922.533259970814	656.613503017463	1008.175337611687	955.127086448470	384.562786665969	1081.556707677686	744.257059580072	608.558660093957	1022.444420109232	622.407536519367	672.105467848538	1100.902837254805	581.700422654808	585.110285795085	1114.799304939248	488.524818883407	590.575685729132	1031.448023218678	732.653949798822	404.813316394508	931.432325138156	628.026394600705	336.265107070963	1006.047962128647	538.836158221575	396.799332283595	998.571491053989	464.904358928046	398.277295596413	950.405246152020	403.000880487670	385.867692142371	834.757968015612	318.113058265797	326.479720424292	858.586476293373	191.461179815732	386.255017167074	1078.045963445576	398.459807402216	597.803574052356	1004.715895731052	298.860226752215	665.452916883315	1032.672045039196	202.764813096077	597.699496902257	885.324390219490	43.501742474571	580.658013111802	974.141045691452	37.107083761535	648.520456303116	1180.825126096065	45.360340364361	622.375322809002	701.740252259684	53.375897443393	413.756408523507	776.457204550976	43.724683148560	335.247076593548	864.981887094474	98.163097384532	363.541183577919	987.835349968060	37.309609672906	334.977187762164	1102.954852903563	1103.385299464260	194.898357237863	1357.213221189543	1045.729041549240	202.454429250816	911.701634009937	1123.219603562569	827.766780469592	910.249237885668	860.388875750410	835.088865234252	
92	22.467500000000	1054.803083032689	96.955768084859	603.799299253282	799.508761515454	1012.082471018837	553.540087068125	1023.577235110632	1416.483784035413	362.496783182454	1119.608406665989	1343.881122299481	524.919092442003	1047.042057328411	1433.512336412381	695.393515818691	1004.921366636264	1483.126720209305	523.186597142560	1026.615592867201	922.634806483765	662.185499709410	1006.730043984986	955.288591192742	390.372854972722	1081.254096888566	743.463894265307	613.865297385563	1021.008570643029	621.757457181822	676.783906651021	1098.952300575534	580.975542496827	589.426765609791	1111.981817117571	487.785011666859	594.302103544745	1032.099776119754	734.113658496795	409.411942844862	933.271956324392	628.663990098107	340.450561164039	1009.923269175221	539.792595087417	399.619868005439	1002.988992744489	464.788550640513	400.226852778167	953.128477678197	403.571305464896	388.254101077587	835.273691012537	321.893346960595	329.200330380025	857.059147920317	194.366275290276	387.664134333527	1074.840824536762	397.834499819889	600.839484532390	1001.029077831428	297.980393396484	667.671618333920	1028.721129400303	202.434678220330	599.032059465797	880.701162109024	43.382829692414	580.741550135160	969.518280138197	37.025070520072	648.612786603559	1176.233573066195	45.295377817223	622.483032560353	697.589563423903	59.945585024514	414.716288884306	771.743354727825	48.258994890039	336.092153939744	861.576930816235	100.314033976067	364.077201216785	982.394788305079	36.734014822532	335.311562746744	1091.389163461295	1098.998362725457	202.129671872207	1341.888099570421	1026.341762680905	208.375999425347	922.273937630540	1119.100023193703	835.266433789327	929.387050968940	856.469721036299	843.275390441481	
